<svg width="48" height="48" viewBox="0 0 48 48" fill="none" xmlns="http://www.w3.org/2000/svg">
<g id="Icon">
<path id="Subtract" fill-rule="evenodd" clip-rule="evenodd" d="M23.1337 40.5C23.5186 41.1667 24.4809 41.1667 24.8658 40.5L42.1863 10.5C42.5712 9.83334 42.09 9 41.3202 9L6.67923 9C5.90942 9 5.4283 9.83334 5.8132 10.5L23.1337 40.5ZM25.1517 26.484L25.4597 12.484H22.7157L23.0237 26.484H25.1517ZM22.9677 31.664C23.3037 32 23.7144 32.168 24.1997 32.168C24.6664 32.168 25.0584 32 25.3757 31.664C25.7117 31.328 25.8797 30.9173 25.8797 30.432C25.8797 29.9467 25.7117 29.536 25.3757 29.2C25.0584 28.864 24.6664 28.696 24.1997 28.696C23.7144 28.696 23.3037 28.864 22.9677 29.2C22.6317 29.536 22.4637 29.9467 22.4637 30.432C22.4637 30.9173 22.6317 31.328 22.9677 31.664Z" fill="#B64D4D"/>
</g>
</svg>
