<svg width="48" height="48" viewBox="0 0 48 48" fill="none" xmlns="http://www.w3.org/2000/svg">
<g id="Icon">
<path id="Rectangle 1" d="M6 8C6 7.05719 6 6.58579 6.29289 6.29289C6.58579 6 7.05719 6 8 6H40C40.9428 6 41.4142 6 41.7071 6.29289C42 6.58579 42 7.05719 42 8V40C42 40.9428 42 41.4142 41.7071 41.7071C41.4142 42 40.9428 42 40 42H8C7.05719 42 6.58579 42 6.29289 41.7071C6 41.4142 6 40.9428 6 40V8Z" stroke="#C09162"/>
<path id="Rectangle 2" d="M6 40C6 40.9428 6 41.4142 6.29289 41.7071C6.58579 42 7.05719 42 8 42H40C40.9428 42 41.4142 42 41.7071 41.7071C42 41.4142 42 40.9428 42 40V32H6V40Z" fill="#C09162"/>
<rect id="Rectangle 4257" x="10" y="10" width="28" height="12" fill="#E4BE98"/>
<rect id="Rectangle 4258" x="10" y="24" width="18" height="2" fill="#E4BE98"/>
<rect id="Rectangle 4259" x="10" y="28" width="14" height="2" fill="#E4BE98"/>
</g>
</svg>
