<svg width="48" height="48" viewBox="0 0 48 48" fill="none" xmlns="http://www.w3.org/2000/svg">
<g id="Icon">
<path id="Subtract" fill-rule="evenodd" clip-rule="evenodd" d="M6 16C4.89543 16 4 16.8954 4 18V26C4 27.1046 4.89543 28 6 28H22V36L30 28H44C45.1046 28 46 27.1046 46 26V18C46 16.8954 45.1046 16 44 16H6ZM40 22C41.1046 22 42 21.1046 42 20C42 18.8954 41.1046 18 40 18C38.8954 18 38 18.8954 38 20C38 21.1046 38.8954 22 40 22Z" fill="#C09162"/>
<circle id="Ellipse 369" cx="10" cy="22" r="4" fill="#F0DFCE"/>
</g>
</svg>
