<svg width="24" height="24" viewBox="0 0 24 24" fill="none" xmlns="http://www.w3.org/2000/svg">
<rect x="2" y="9" width="20" height="6" rx="1" fill="#C09162"/>
<path d="M8.32863 11.9258C8.44663 11.9478 8.54363 12.0068 8.61963 12.1028C8.69563 12.1988 8.73363 12.3088 8.73363 12.4328C8.73363 12.5448 8.70563 12.6438 8.64963 12.7298C8.59563 12.8138 8.51663 12.8798 8.41263 12.9278C8.30862 12.9758 8.18563 12.9998 8.04362 12.9998H7.14062V10.9058H8.00463C8.14663 10.9058 8.26863 10.9288 8.37063 10.9748C8.47462 11.0208 8.55263 11.0848 8.60463 11.1668C8.65863 11.2488 8.68563 11.3418 8.68563 11.4458C8.68563 11.5678 8.65263 11.6698 8.58662 11.7518C8.52263 11.8338 8.43663 11.8918 8.32863 11.9258ZM7.56063 11.7698H7.94463C8.04463 11.7698 8.12163 11.7478 8.17563 11.7038C8.22962 11.6578 8.25663 11.5928 8.25663 11.5088C8.25663 11.4248 8.22962 11.3598 8.17563 11.3138C8.12163 11.2678 8.04463 11.2448 7.94463 11.2448H7.56063V11.7698ZM7.98363 12.6578C8.08563 12.6578 8.16463 12.6338 8.22063 12.5858C8.27863 12.5378 8.30763 12.4698 8.30763 12.3818C8.30763 12.2918 8.27763 12.2218 8.21763 12.1718C8.15763 12.1198 8.07663 12.0938 7.97462 12.0938H7.56063V12.6578H7.98363Z" fill="white"/>
<path d="M10.6374 11.3378V12.9998H10.2144V12.7898C10.1604 12.8618 10.0894 12.9188 10.0014 12.9608C9.91536 13.0008 9.82136 13.0208 9.71936 13.0208C9.58936 13.0208 9.47436 12.9938 9.37436 12.9398C9.27436 12.8838 9.19536 12.8028 9.13736 12.6968C9.08136 12.5888 9.05336 12.4608 9.05336 12.3128V11.3378H9.47336V12.2528C9.47336 12.3848 9.50636 12.4868 9.57236 12.5588C9.63836 12.6288 9.72836 12.6638 9.84236 12.6638C9.95836 12.6638 10.0494 12.6288 10.1154 12.5588C10.1814 12.4868 10.2144 12.3848 10.2144 12.2528V11.3378H10.6374Z" fill="white"/>
<path d="M11.5408 11.6828V12.4868C11.5408 12.5428 11.5538 12.5838 11.5798 12.6098C11.6078 12.6338 11.6538 12.6458 11.7178 12.6458H11.9128V12.9998H11.6488C11.2948 12.9998 11.1178 12.8278 11.1178 12.4838V11.6828H10.9198V11.3378H11.1178V10.9268H11.5408V11.3378H11.9128V11.6828H11.5408Z" fill="white"/>
<path d="M12.7038 11.6828V12.4868C12.7038 12.5428 12.7168 12.5838 12.7428 12.6098C12.7708 12.6338 12.8168 12.6458 12.8808 12.6458H13.0758V12.9998H12.8118C12.4578 12.9998 12.2808 12.8278 12.2808 12.4838V11.6828H12.0828V11.3378H12.2808V10.9268H12.7038V11.3378H13.0758V11.6828H12.7038Z" fill="white"/>
<path d="M14.1159 13.0268C13.9559 13.0268 13.8119 12.9918 13.6839 12.9218C13.5559 12.8498 13.4549 12.7488 13.3809 12.6188C13.3089 12.4888 13.2729 12.3388 13.2729 12.1688C13.2729 11.9988 13.3099 11.8488 13.3839 11.7188C13.4599 11.5888 13.5629 11.4888 13.6929 11.4188C13.8229 11.3468 13.9679 11.3108 14.1279 11.3108C14.2879 11.3108 14.4329 11.3468 14.5629 11.4188C14.6929 11.4888 14.7949 11.5888 14.8689 11.7188C14.9449 11.8488 14.9829 11.9988 14.9829 12.1688C14.9829 12.3388 14.9439 12.4888 14.8659 12.6188C14.7899 12.7488 14.6859 12.8498 14.5539 12.9218C14.4239 12.9918 14.2779 13.0268 14.1159 13.0268ZM14.1159 12.6608C14.1919 12.6608 14.2629 12.6428 14.3289 12.6068C14.3969 12.5688 14.4509 12.5128 14.4909 12.4388C14.5309 12.3648 14.5509 12.2748 14.5509 12.1688C14.5509 12.0108 14.5089 11.8898 14.4249 11.8058C14.3429 11.7198 14.2419 11.6768 14.1219 11.6768C14.0019 11.6768 13.9009 11.7198 13.8189 11.8058C13.7389 11.8898 13.6989 12.0108 13.6989 12.1688C13.6989 12.3268 13.7379 12.4488 13.8159 12.5348C13.8959 12.6188 13.9959 12.6608 14.1159 12.6608Z" fill="white"/>
<path d="M16.212 11.3138C16.41 11.3138 16.57 11.3768 16.692 11.5028C16.814 11.6268 16.875 11.8008 16.875 12.0248V12.9998H16.455V12.0818C16.455 11.9498 16.422 11.8488 16.356 11.7788C16.29 11.7068 16.2 11.6708 16.086 11.6708C15.97 11.6708 15.878 11.7068 15.81 11.7788C15.744 11.8488 15.711 11.9498 15.711 12.0818V12.9998H15.291V11.3378H15.711V11.5448C15.767 11.4728 15.838 11.4168 15.924 11.3768C16.012 11.3348 16.108 11.3138 16.212 11.3138Z" fill="white"/>
</svg>
