<svg width="24" height="24" viewBox="0 0 24 24" fill="none" xmlns="http://www.w3.org/2000/svg">
<path d="M3 5C3 4.05719 3 3.58579 3.29289 3.29289C3.58579 3 4.05719 3 5 3H19C19.9428 3 20.4142 3 20.7071 3.29289C21 3.58579 21 4.05719 21 5V19C21 19.9428 21 20.4142 20.7071 20.7071C20.4142 21 19.9428 21 19 21H5C4.05719 21 3.58579 21 3.29289 20.7071C3 20.4142 3 19.9428 3 19V5Z" stroke="#C09162"/>
<path d="M3 19C3 19.9428 3 20.4142 3.29289 20.7071C3.58579 21 4.05719 21 5 21H19C19.9428 21 20.4142 21 20.7071 20.7071C21 20.4142 21 19.9428 21 19V16H3V19Z" fill="#C09162"/>
<rect x="5" y="5" width="14" height="6" fill="#E4BE98"/>
<rect x="5" y="12" width="9" height="1" fill="#E4BE98"/>
<rect x="5" y="14" width="7" height="1" fill="#E4BE98"/>
</svg>
