<svg width="24" height="24" viewBox="0 0 24 24" fill="none" xmlns="http://www.w3.org/2000/svg">
<mask id="path-1-inside-1_3702_26743" fill="white">
<path fill-rule="evenodd" clip-rule="evenodd" d="M19.7267 13.1615C18.6138 13.7485 17.3457 14.0808 16 14.0808C11.5817 14.0808 8 10.4991 8 6.08077C8 5.36103 8.09505 4.66348 8.27328 4C5.73217 5.34019 4 8.00819 4 11.0808C4 15.4991 7.58172 19.0808 12 19.0808C15.6985 19.0808 18.8109 16.5709 19.7267 13.1615Z"/>
</mask>
<path fill-rule="evenodd" clip-rule="evenodd" d="M19.7267 13.1615C18.6138 13.7485 17.3457 14.0808 16 14.0808C11.5817 14.0808 8 10.4991 8 6.08077C8 5.36103 8.09505 4.66348 8.27328 4C5.73217 5.34019 4 8.00819 4 11.0808C4 15.4991 7.58172 19.0808 12 19.0808C15.6985 19.0808 18.8109 16.5709 19.7267 13.1615Z" fill="#F0DFCE"/>
<path d="M19.7267 13.1615L20.6925 13.421L21.2869 11.2081L19.2602 12.277L19.7267 13.1615ZM8.27328 4L9.23904 4.25943L9.83347 2.04659L7.80678 3.11548L8.27328 4ZM19.2602 12.277C18.2876 12.79 17.1792 13.0808 16 13.0808V15.0808C17.5121 15.0808 18.94 14.707 20.1932 14.0461L19.2602 12.277ZM16 13.0808C12.134 13.0808 9 9.94677 9 6.08077H7C7 11.0513 11.0294 15.0808 16 15.0808V13.0808ZM9 6.08077C9 5.44942 9.08333 4.83907 9.23904 4.25943L7.30752 3.74057C7.10676 4.48789 7 5.27264 7 6.08077H9ZM5 11.0808C5 8.39366 6.51378 6.05852 8.73978 4.88452L7.80678 3.11548C4.95056 4.62186 3 7.62272 3 11.0808H5ZM12 18.0808C8.13401 18.0808 5 14.9468 5 11.0808H3C3 16.0513 7.02944 20.0808 12 20.0808V18.0808ZM18.761 12.9021C17.9595 15.8857 15.2348 18.0808 12 18.0808V20.0808C16.1623 20.0808 19.6622 17.2562 20.6925 13.421L18.761 12.9021Z" fill="#C09162" mask="url(#path-1-inside-1_3702_26743)"/>
</svg>
