<svg width="25" height="24" viewBox="0 0 25 24" fill="none" xmlns="http://www.w3.org/2000/svg">
<path fill-rule="evenodd" clip-rule="evenodd" d="M7.67088 6.94269C6.16849 8.03085 4.96124 9.34844 4.22115 10.2514C3.79396 10.7725 3.74902 10.8636 3.74902 11.0061C3.74902 11.1486 3.79396 11.2397 4.22115 11.7608C4.96124 12.6638 6.16849 13.9814 7.67088 15.0695C9.17745 16.1607 10.9371 16.9897 12.7927 16.9897C14.6483 16.9897 16.408 16.1607 17.9146 15.0695C19.417 13.9814 20.6242 12.6638 21.3643 11.7608C21.7915 11.2397 21.8364 11.1486 21.8364 11.0061C21.8364 10.8636 21.7915 10.7725 21.3643 10.2514C20.6242 9.34844 19.417 8.03085 17.9146 6.94268C16.408 5.85149 14.6483 5.02246 12.7927 5.02246C10.9371 5.02246 9.17745 5.85149 7.67088 6.94269ZM7.08429 6.1328C8.67801 4.97848 10.6426 4.02246 12.7927 4.02246C14.9428 4.02246 16.9075 4.97848 18.5012 6.1328C20.0991 7.29015 21.3681 8.67854 22.1377 9.61745C22.1577 9.64177 22.1776 9.66594 22.1974 9.69001C22.529 10.0926 22.8364 10.466 22.8364 11.0061C22.8364 11.5462 22.529 11.9196 22.1974 12.3222C22.1776 12.3463 22.1577 12.3704 22.1377 12.3948C21.3681 13.3337 20.0991 14.7221 18.5012 15.8794C16.9075 17.0337 14.9428 17.9897 12.7927 17.9897C10.6426 17.9897 8.67801 17.0337 7.08429 15.8794C5.48638 14.7221 4.21734 13.3337 3.44775 12.3948C3.42782 12.3704 3.40791 12.3463 3.38809 12.3222C3.05651 11.9196 2.74902 11.5462 2.74902 11.0061C2.74902 10.466 3.05651 10.0926 3.38809 9.69001C3.40791 9.66594 3.42782 9.64177 3.44775 9.61745C4.21733 8.67854 5.48638 7.29015 7.08429 6.1328Z" fill="#C09162"/>
<circle cx="12.7451" cy="11" r="4.5" fill="#C09162" stroke="#F0DFCE"/>
<circle cx="1" cy="1" r="1" transform="matrix(1 0 0 -1 10.7451 14)" fill="#F0DFCE"/>
</svg>
