<svg width="24" height="24" viewBox="0 0 24 24" fill="none" xmlns="http://www.w3.org/2000/svg">
<path d="M3 5C3 4.05719 3 3.58579 3.29289 3.29289C3.58579 3 4.05719 3 5 3H19C19.9428 3 20.4142 3 20.7071 3.29289C21 3.58579 21 4.05719 21 5V19C21 19.9428 21 20.4142 20.7071 20.7071C20.4142 21 19.9428 21 19 21H5C4.05719 21 3.58579 21 3.29289 20.7071C3 20.4142 3 19.9428 3 19V5Z" stroke="#C09162"/>
<path d="M3 5C3 4.05719 3 3.58579 3.29289 3.29289C3.58579 3 4.05719 3 5 3H19C19.9428 3 20.4142 3 20.7071 3.29289C21 3.58579 21 4.05719 21 5V8H3V5Z" fill="#C09162" stroke="#C09162"/>
<circle cx="5.5" cy="5.5" r="1.5" fill="#F0DFCE"/>
<circle cx="9.5" cy="5.5" r="1.5" fill="#F0DFCE"/>
<path fill-rule="evenodd" clip-rule="evenodd" d="M14.4174 13.7208L15.2324 12.9059C15.6684 12.4699 15.6684 11.763 15.2324 11.327C14.7964 10.891 14.0895 10.891 13.6535 11.327L12.8299 12.1506C13.2155 12.7982 13.7614 13.34 14.4174 13.7208ZM14.0529 14.0853C13.4096 13.6884 12.8673 13.1499 12.4663 12.5141L10.1679 14.8126C9.74281 15.2377 9.53028 15.4502 9.39054 15.7113C9.25081 15.9724 9.19186 16.2671 9.07397 16.8566L9.06385 16.9072C8.99733 17.2398 8.96407 17.4061 9.05868 17.5007C9.15328 17.5953 9.31959 17.562 9.6522 17.4955L9.6522 17.4955L9.7028 17.4854L9.70281 17.4854C10.2923 17.3675 10.587 17.3085 10.8481 17.1688C11.1092 17.0291 11.3217 16.8166 11.7468 16.3915L14.0529 14.0853Z" fill="#E4BE98"/>
<mask id="mask0_3702_12344" style="mask-type:alpha" maskUnits="userSpaceOnUse" x="9" y="11" width="7" height="7">
<path fill-rule="evenodd" clip-rule="evenodd" d="M14.4174 13.7208L15.2324 12.9059C15.6684 12.4699 15.6684 11.763 15.2324 11.327C14.7964 10.891 14.0895 10.891 13.6535 11.327L12.8299 12.1506C13.2155 12.7982 13.7614 13.34 14.4174 13.7208ZM14.0529 14.0853C13.4096 13.6884 12.8673 13.1499 12.4663 12.5141L10.1679 14.8126C9.74281 15.2377 9.53028 15.4502 9.39054 15.7113C9.25081 15.9724 9.19186 16.2671 9.07397 16.8566L9.06385 16.9072C8.99733 17.2398 8.96407 17.4061 9.05868 17.5007C9.15328 17.5953 9.31959 17.562 9.6522 17.4955L9.6522 17.4955L9.7028 17.4854L9.70281 17.4854C10.2923 17.3675 10.587 17.3085 10.8481 17.1688C11.1092 17.0291 11.3217 16.8166 11.7468 16.3915L14.0529 14.0853Z" fill="#90D6FA"/>
</mask>
<g mask="url(#mask0_3702_12344)">
<path d="M14.8373 14.4845L12.0742 11.7215L14.4426 10.1426L16.8109 12.1162L14.8373 14.4845Z" fill="#9C9C9C"/>
</g>
</svg>
