<svg width="113" height="36" viewBox="0 0 113 36" fill="none" xmlns="http://www.w3.org/2000/svg">
<path d="M21.8394 0.783691L39.0189 6.67917L21.8394 12.4657L4.72266 6.67917L21.8394 0.783691Z" fill="url(#paint0_linear_3702_26719)"/>
<path d="M22.2441 12.9494L39.2518 7.1084V28.2391L22.2441 34.0802V12.9494Z" fill="#4579A0"/>
<path d="M21.5565 12.9494L4.54883 7.1084V28.2391L21.5565 34.0802V12.9494Z" fill="white"/>
<path d="M17.0077 35.6264L0 29.7854L4.55256 28.2393L21.5602 34.0803L17.0077 35.6264Z" fill="url(#paint1_linear_3702_26719)"/>
<path d="M39.2518 7.1084L30.748 20.5943L22.2441 12.9494L39.2518 7.1084Z" fill="#E2E7EC"/>
<path d="M39.2518 7.1084L30.748 20.5943L22.2441 12.9494L39.2518 7.1084Z" fill="url(#paint2_linear_3702_26719)"/>
<path d="M30.748 20.5942L22.2441 34.0801L39.2518 28.2391L30.748 20.5942Z" fill="url(#paint3_linear_3702_26719)"/>
<path d="M57.4218 23.4627C56.6202 23.8521 55.6219 24.0469 54.4271 24.0469C52.8844 24.0469 51.6492 23.5901 50.7215 22.6767C49.7939 21.7633 49.3301 20.5647 49.3301 19.0809C49.3301 17.4858 49.8519 16.1968 50.8955 15.2138C51.9391 14.2308 53.2625 13.7393 54.8657 13.7393C55.8942 13.7393 56.7463 13.876 57.4218 14.1495V15.3945C56.6454 14.9958 55.7884 14.7963 54.8506 14.7963C53.6053 14.7963 52.5945 15.1789 51.8181 15.9441C51.0467 16.7091 50.6611 17.7314 50.6611 19.0113C50.6611 20.2261 51.0215 21.1951 51.7425 21.9186C52.4685 22.6372 53.4188 22.9966 54.5935 22.9966C55.6825 22.9966 56.6252 22.7741 57.4218 22.329V23.4627Z" fill="#DFDFDF"/>
<path d="M69.7761 19.6791C69.7761 22.4797 68.4022 23.8801 65.6545 23.8801C63.0228 23.8801 61.707 22.5331 61.707 19.839V13.7393H62.9775V19.7626C62.9775 21.8074 63.9151 22.8298 65.7906 22.8298C67.6006 22.8298 68.5055 21.8421 68.5055 19.8668V13.7393H69.7761V19.6791Z" fill="#DFDFDF"/>
<path d="M73.9414 23.7131V13.7393H77.0268C77.9647 13.7393 78.7082 13.9502 79.2578 14.3721C79.8073 14.7942 80.082 15.3436 80.082 16.0207C80.082 16.5862 79.9157 17.0777 79.583 17.4952C79.2502 17.9125 78.7913 18.2092 78.2066 18.3854V18.4133C78.9375 18.4921 79.5225 18.7471 79.9611 19.1783C80.3997 19.6048 80.6189 20.1613 80.6189 20.8476C80.6189 21.7007 80.2863 22.3917 79.6208 22.9203C78.9552 23.4487 78.1158 23.7131 77.1024 23.7131H73.9414ZM75.2118 14.7965V18.0168H76.5127C77.2084 18.0168 77.7554 17.8637 78.1536 17.5577C78.5519 17.2471 78.7511 16.8111 78.7511 16.2502C78.7511 15.2811 78.0578 14.7965 76.6714 14.7965H75.2118ZM75.2118 19.067V22.6559H76.9361C77.6822 22.6559 78.2595 22.4936 78.6678 22.1691C79.0813 21.8445 79.288 21.3994 79.288 20.8337C79.288 19.6559 78.4158 19.067 76.6714 19.067H75.2118Z" fill="#DFDFDF"/>
<path d="M90.4857 23.7131H84.7383V13.7393H90.2438V14.7965H86.0089V18.1142H89.9261V19.1644H86.0089V22.6559H90.4857V23.7131Z" fill="#DFDFDF"/>
<path d="M98.9435 20.3948H94.8145V19.4976H98.9435V20.3948Z" fill="#DFDFDF"/>
<path d="M112.165 23.7131H110.615L108.119 19.8947C108.043 19.7787 107.96 19.6141 107.87 19.4009H107.839C107.789 19.5076 107.703 19.6722 107.582 19.8947L105.011 23.7131H103.453L107.083 18.6985L103.741 13.7393H105.298L107.514 17.2447C107.66 17.4767 107.789 17.7084 107.9 17.9403H107.93C108.091 17.6342 108.233 17.3932 108.354 17.2169L110.66 13.7393H112.12L108.709 18.6845L112.165 23.7131Z" fill="#DFDFDF"/>
<defs>
<linearGradient id="paint0_linear_3702_26719" x1="39.0816" y1="6.76507" x2="4.72266" y2="6.76507" gradientUnits="userSpaceOnUse">
<stop stop-color="#484848"/>
<stop offset="0.501166" stop-color="#D5DBE0"/>
<stop offset="1" stop-color="#484848"/>
</linearGradient>
<linearGradient id="paint1_linear_3702_26719" x1="18.4679" y1="17.8457" x2="13.2282" y2="32.7918" gradientUnits="userSpaceOnUse">
<stop/>
<stop offset="1" stop-opacity="0"/>
</linearGradient>
<linearGradient id="paint2_linear_3702_26719" x1="42.0005" y1="10.7161" x2="16.6608" y2="18.0174" gradientUnits="userSpaceOnUse">
<stop stop-color="#2C5A7C"/>
<stop offset="0.438135" stop-color="#4579A0"/>
<stop offset="1" stop-color="#D2E0E9"/>
</linearGradient>
<linearGradient id="paint3_linear_3702_26719" x1="18.5506" y1="29.6994" x2="47.3262" y2="26.6071" gradientUnits="userSpaceOnUse">
<stop stop-color="#2C5A7C"/>
<stop offset="0.438135" stop-color="#4579A0"/>
<stop offset="1" stop-color="#D2E0E9"/>
</linearGradient>
</defs>
</svg>
