<svg width="24" height="24" viewBox="0 0 24 24" fill="none" xmlns="http://www.w3.org/2000/svg">
<path d="M3 5C3 4.05719 3 3.58579 3.29289 3.29289C3.58579 3 4.05719 3 5 3H19C19.9428 3 20.4142 3 20.7071 3.29289C21 3.58579 21 4.05719 21 5V19C21 19.9428 21 20.4142 20.7071 20.7071C20.4142 21 19.9428 21 19 21H5C4.05719 21 3.58579 21 3.29289 20.7071C3 20.4142 3 19.9428 3 19V5Z" stroke="#C09162"/>
<path d="M3 5C3 4.05719 3 3.58579 3.29289 3.29289C3.58579 3 4.05719 3 5 3H19C19.9428 3 20.4142 3 20.7071 3.29289C21 3.58579 21 4.05719 21 5V8H3V5Z" fill="#C09162" stroke="#C09162"/>
<circle cx="5.5" cy="5.5" r="1.5" fill="#F0DFCE"/>
<circle cx="9.5" cy="5.5" r="1.5" fill="#F0DFCE"/>
<path d="M8 14L11 17L16 11" stroke="#C09162" stroke-width="2" stroke-linecap="round" stroke-linejoin="round"/>
</svg>
