<svg width="25" height="24" viewBox="0 0 25 24" fill="none" xmlns="http://www.w3.org/2000/svg">
<path d="M5.43164 7C5.43164 5.89543 6.32707 5 7.43164 5H15.6032C16.1336 5 16.6424 5.21071 17.0174 5.58579L18.8459 7.41421C19.2209 7.78929 19.4316 8.29799 19.4316 8.82843V17C19.4316 18.1046 18.5362 19 17.4316 19H7.43164C6.32707 19 5.43164 18.1046 5.43164 17V7Z" fill="#E4BE98"/>
<path d="M14.4316 15L12.4316 17M12.4316 17L10.4316 15M12.4316 17L12.4316 12.5" stroke="#DFDFDF" stroke-linecap="round" stroke-linejoin="round"/>
<path d="M15.4316 9C15.4316 9.55228 14.9839 10 14.4316 10H10.4316C9.87936 10 9.43164 9.55228 9.43164 9V5H15.4316V9Z" fill="#905923"/>
<path d="M11.9316 6H12.9316V9H11.9316V6Z" fill="#E4BE98"/>
</svg>
