<svg width="24" height="24" viewBox="0 0 24 24" fill="none" xmlns="http://www.w3.org/2000/svg">
<rect x="9" y="8" width="13" height="13" rx="2" fill="#C09162"/>
<path fill-rule="evenodd" clip-rule="evenodd" d="M8 5C6.89543 5 6 5.89543 6 7V16C6 17.1046 6.89543 18 8 18L8 9C8 7.89543 8.89543 7 10 7H19C19 5.89543 18.1046 5 17 5H8Z" fill="#C09162"/>
<path fill-rule="evenodd" clip-rule="evenodd" d="M5 2C3.89543 2 3 2.89543 3 4V13C3 14.1046 3.89543 15 5 15L5 7C5 5.34315 6.34315 4 8 4H16C16 2.89543 15.1046 2 14 2H5Z" fill="#C09162"/>
</svg>
