<svg width="112" height="112" viewBox="0 0 112 112" fill="none" xmlns="http://www.w3.org/2000/svg">
<g filter="url(#filter0_d_3361_76166)">
<circle cx="56" cy="56" r="46" fill="#B64D4D"/>
</g>
<path d="M63.2959 25.84L61.6959 64.16H50.0959L48.4959 25.84H63.2959ZM56.0959 84.64C53.6959 84.64 51.7226 83.9467 50.1759 82.56C48.6826 81.12 47.9359 79.36 47.9359 77.28C47.9359 75.1467 48.6826 73.36 50.1759 71.92C51.7226 70.48 53.6959 69.76 56.0959 69.76C58.4426 69.76 60.3626 70.48 61.8559 71.92C63.4026 73.36 64.1759 75.1467 64.1759 77.28C64.1759 79.36 63.4026 81.12 61.8559 82.56C60.3626 83.9467 58.4426 84.64 56.0959 84.64Z" fill="#F0F0F0"/>
<defs>
<filter id="filter0_d_3361_76166" x="0" y="0" width="112" height="112" filterUnits="userSpaceOnUse" color-interpolation-filters="sRGB">
<feFlood flood-opacity="0" result="BackgroundImageFix"/>
<feColorMatrix in="SourceAlpha" type="matrix" values="0 0 0 0 0 0 0 0 0 0 0 0 0 0 0 0 0 0 127 0" result="hardAlpha"/>
<feOffset/>
<feGaussianBlur stdDeviation="5"/>
<feComposite in2="hardAlpha" operator="out"/>
<feColorMatrix type="matrix" values="0 0 0 0 0.760784 0 0 0 0 0.129412 0 0 0 0 0.129412 0 0 0 0.5 0"/>
<feBlend mode="normal" in2="BackgroundImageFix" result="effect1_dropShadow_3361_76166"/>
<feBlend mode="normal" in="SourceGraphic" in2="effect1_dropShadow_3361_76166" result="shape"/>
</filter>
</defs>
</svg>
